<?xml version="1.0" encoding="UTF-8" standalone="no"?>
<!DOCTYPE svg PUBLIC "-//W3C//DTD SVG 1.1//EN"
 "http://www.w3.org/Graphics/SVG/1.1/DTD/svg11.dtd">
<!-- Generated by graphviz version 2.40.1 (20161225.0304)
 -->
<!-- Title: G Pages: 1 -->
<svg width="180pt" height="260pt"
 viewBox="0.00 0.00 180.34 260.00" xmlns="http://www.w3.org/2000/svg" xmlns:xlink="http://www.w3.org/1999/xlink">
<g id="graph0" class="graph" transform="scale(1 1) rotate(0) translate(4 256)">
<title>G</title>
<polygon fill="#ffffff" stroke="transparent" points="-4,4 -4,-256 176.3431,-256 176.3431,4 -4,4"/>
<!-- n2 -->
<g id="node1" class="node">
<title>n2</title>
<ellipse fill="none" stroke="#ff0000" cx="93.7468" cy="-18" rx="29.795" ry="18"/>
<text text-anchor="middle" x="93.7468" y="-14.3" font-family="Times,serif" font-size="14.00" fill="#000000">calc</text>
</g>
<!-- n6 -->
<g id="node2" class="node">
<title>n6</title>
<ellipse fill="none" stroke="#00ff00" cx="35.7468" cy="-162" rx="35.9954" ry="18"/>
<text text-anchor="middle" x="35.7468" y="-158.3" font-family="Times,serif" font-size="14.00" fill="#000000">calc.l</text>
</g>
<!-- n3 -->
<g id="node4" class="node">
<title>n3</title>
<ellipse fill="none" stroke="#ff0000" cx="57.7468" cy="-90" rx="45.4919" ry="18"/>
<text text-anchor="middle" x="57.7468" y="-86.3" font-family="Times,serif" font-size="14.00" fill="#000000">lex.yy.c</text>
</g>
<!-- n6&#45;&gt;n3 -->
<g id="edge3" class="edge">
<title>n6&#45;&gt;n3</title>
<path fill="none" stroke="#000000" d="M41.185,-144.2022C43.6257,-136.2146 46.5621,-126.6045 49.2803,-117.7087"/>
<polygon fill="#000000" stroke="#000000" points="52.6434,-118.6794 52.2184,-108.0931 45.9489,-116.6339 52.6434,-118.6794"/>
</g>
<!-- n5 -->
<g id="node3" class="node">
<title>n5</title>
<ellipse fill="none" stroke="#00ff00" cx="130.7468" cy="-234" rx="38.1938" ry="18"/>
<text text-anchor="middle" x="130.7468" y="-230.3" font-family="Times,serif" font-size="14.00" fill="#000000">calc.y</text>
</g>
<!-- n4 -->
<g id="node5" class="node">
<title>n4</title>
<ellipse fill="none" stroke="#ff0000" cx="130.7468" cy="-162" rx="41.6928" ry="18"/>
<text text-anchor="middle" x="130.7468" y="-158.3" font-family="Times,serif" font-size="14.00" fill="#000000">y.tab.c</text>
</g>
<!-- n5&#45;&gt;n4 -->
<g id="edge5" class="edge">
<title>n5&#45;&gt;n4</title>
<path fill="none" stroke="#000000" d="M130.7468,-215.8314C130.7468,-208.131 130.7468,-198.9743 130.7468,-190.4166"/>
<polygon fill="#000000" stroke="#000000" points="134.2469,-190.4132 130.7468,-180.4133 127.2469,-190.4133 134.2469,-190.4132"/>
</g>
<!-- n3&#45;&gt;n2 -->
<g id="edge1" class="edge">
<title>n3&#45;&gt;n2</title>
<path fill="none" stroke="#000000" d="M66.6457,-72.2022C70.8181,-63.8574 75.876,-53.7417 80.487,-44.5197"/>
<polygon fill="#000000" stroke="#000000" points="83.7328,-45.8541 85.0745,-35.3446 77.4718,-42.7236 83.7328,-45.8541"/>
</g>
<!-- n4&#45;&gt;n2 -->
<g id="edge2" class="edge">
<title>n4&#45;&gt;n2</title>
<path fill="none" stroke="#000000" d="M127.5573,-143.9268C124.186,-125.6511 118.4365,-96.6598 111.7468,-72 109.3924,-63.321 106.4374,-53.9888 103.6062,-45.5646"/>
<polygon fill="#000000" stroke="#000000" points="106.8252,-44.1621 100.263,-35.8441 100.2057,-46.4388 106.8252,-44.1621"/>
</g>
<!-- n4&#45;&gt;n3 -->
<g id="edge4" class="edge">
<title>n4&#45;&gt;n3</title>
<path fill="none" stroke="#000000" d="M113.8157,-145.3008C104.3935,-136.0077 92.5013,-124.2784 82.0962,-114.0158"/>
<polygon fill="#000000" stroke="#000000" points="84.4165,-111.3883 74.839,-106.8581 79.501,-116.3721 84.4165,-111.3883"/>
</g>
</g>
</svg>
